{
    "asset" : {
        "generator" : "Khronos glTF Blender I/O v1.8.19",
        "version" : "2.0"
    },
    "scene" : 0,
    "scenes" : [
        {
            "name" : "Scene",
            "nodes" : [
                0
            ]
        }
    ],
    "nodes" : [
        {
            "extras" : {
                "sparkar_optimization" : {
                    "InvertedReducePercentage" : 0.0
                },
                "spark_blender_addon" : 1
            },
            "mesh" : 0,
            "name" : "Cube",
            "scale" : [
                3.325399160385132,
                3.325399160385132,
                3.325399160385132
            ]
        }
    ],
    "meshes" : [
        {
            "name" : "Cube",
            "primitives" : [
                {
                    "attributes" : {
                        "POSITION" : 0,
                        "NORMAL" : 1,
                        "TEXCOORD_0" : 2
                    },
                    "indices" : 3
                }
            ]
        }
    ],
    "accessors" : [
        {
            "bufferView" : 0,
            "componentType" : 5126,
            "count" : 35883,
            "max" : [
                2.1244776248931885,
                1.0050607919692993,
                2.017928123474121
            ],
            "min" : [
                -2.126589775085449,
                0.21742352843284607,
                -2.0235512256622314
            ],
            "type" : "VEC3"
        },
        {
            "bufferView" : 1,
            "componentType" : 5126,
            "count" : 35883,
            "type" : "VEC3"
        },
        {
            "bufferView" : 2,
            "componentType" : 5126,
            "count" : 35883,
            "type" : "VEC2"
        },
        {
            "bufferView" : 3,
            "componentType" : 5123,
            "count" : 45198,
            "type" : "SCALAR"
        }
    ],
    "bufferViews" : [
        {
            "buffer" : 0,
            "byteLength" : 430596,
            "byteOffset" : 0
        },
        {
            "buffer" : 0,
            "byteLength" : 430596,
            "byteOffset" : 430596
        },
        {
            "buffer" : 0,
            "byteLength" : 287064,
            "byteOffset" : 861192
        },
        {
            "buffer" : 0,
            "byteLength" : 90396,
            "byteOffset" : 1148256
        }
    ],
    "buffers" : [
        {
            "byteLength" : 1238652,
            "uri" : "data:application/octet-stream;base64,"
        }
    ]
}
